<?xml version="1.0" standalone="no"?>
<!DOCTYPE svg PUBLIC "-//W3C//DTD SVG 20010904//EN"
 "http://www.w3.org/TR/2001/REC-SVG-20010904/DTD/svg10.dtd">
<svg version="1.0" xmlns="http://www.w3.org/2000/svg"
 width="700.000000pt" height="700.000000pt" viewBox="0 0 700.000000 700.000000"
 preserveAspectRatio="xMidYMid meet">
<metadata>
Created by potrace 1.14, written by Peter Selinger 2001-2017
</metadata>
<g transform="translate(0.000000,700.000000) scale(0.100000,-0.100000)"
fill="#000000" stroke="none">
<path d="M4330 6579 c-41 -4 -113 -10 -160 -14 -47 -3 -107 -8 -135 -10 -27
-2 -86 -7 -130 -10 -44 -3 -109 -7 -145 -10 -36 -3 -92 -7 -125 -10 -98 -7
-217 -16 -270 -20 -27 -2 -88 -7 -135 -10 -98 -6 -205 -14 -270 -20 -25 -2
-83 -7 -130 -10 -47 -3 -112 -8 -145 -10 -76 -6 -180 -14 -270 -20 -38 -2 -99
-7 -135 -10 -140 -11 -188 -15 -270 -20 -47 -3 -107 -8 -135 -10 -27 -2 -86
-7 -130 -10 -44 -3 -107 -8 -140 -10 -33 -3 -94 -8 -135 -10 -41 -3 -100 -7
-130 -10 -30 -2 -89 -7 -130 -10 -434 -31 -479 -42 -578 -141 -85 -85 -93
-107 -99 -288 -3 -83 -6 -999 -7 -2036 l-1 -1885 42 -87 c62 -129 146 -246
562 -783 90 -116 175 -225 190 -244 105 -136 279 -350 300 -369 41 -37 142
-82 212 -93 57 -9 196 -7 419 6 36 2 121 6 190 10 122 6 191 10 355 20 44 2
130 7 190 10 61 3 139 8 175 10 36 2 110 7 165 10 108 6 240 14 320 20 28 2
104 6 170 10 66 3 149 8 185 10 36 3 101 7 145 9 220 14 274 17 325 21 30 3
107 7 170 11 63 3 135 7 160 9 25 1 97 6 160 9 63 4 138 9 165 11 129 10 207
15 295 20 52 3 118 7 145 9 28 3 93 7 145 10 237 15 463 34 495 42 72 19 165
81 206 136 50 70 57 118 65 468 7 319 7 3590 0 3815 -7 230 -20 336 -46 385
-5 10 -67 58 -137 107 -71 49 -233 163 -362 254 -296 208 -288 203 -461 322
-148 103 -163 113 -310 216 -182 128 -277 175 -395 196 -58 10 -347 13 -435 4z
m389 -355 c103 -24 152 -47 266 -124 206 -138 609 -433 634 -464 16 -19 6 -34
-25 -40 -39 -7 -350 -29 -577 -41 -105 -5 -240 -13 -342 -20 -38 -3 -122 -7
-185 -11 -63 -3 -142 -7 -175 -9 -33 -2 -105 -6 -160 -10 -55 -3 -131 -8 -170
-10 -75 -5 -201 -13 -330 -20 -44 -2 -120 -7 -170 -10 -49 -3 -128 -8 -175
-10 -47 -3 -112 -7 -145 -10 -33 -2 -107 -7 -165 -10 -58 -3 -136 -8 -175 -10
-38 -2 -122 -7 -185 -10 -63 -4 -142 -8 -175 -10 -227 -14 -393 -20 -540 -20
-165 0 -171 1 -225 28 -59 29 -288 197 -461 337 -190 155 -206 174 -166 211
28 25 73 37 177 44 47 3 110 8 140 10 59 5 136 11 265 20 44 3 103 7 130 10
28 2 95 7 150 11 55 3 116 7 135 9 19 2 80 6 135 10 55 3 123 8 150 10 28 2
91 6 140 10 50 3 113 8 140 10 28 2 91 7 140 10 50 3 113 8 140 10 28 2 91 7
140 10 50 3 113 8 140 10 28 3 91 7 140 10 50 3 117 7 150 10 33 2 98 7 145
10 47 3 108 8 135 10 46 5 86 7 280 20 39 3 93 7 120 9 28 3 97 8 155 12 58 3
107 8 109 10 10 9 236 0 290 -12z m1278 -1074 c46 -37 64 -84 69 -186 6 -110
6 -3161 -1 -3446 -6 -291 -12 -323 -77 -371 -63 -46 -76 -48 -468 -72 -52 -3
-129 -7 -170 -10 -135 -9 -234 -15 -330 -20 -87 -4 -147 -8 -330 -20 -56 -4
-177 -10 -355 -20 -59 -3 -266 -15 -345 -20 -30 -1 -111 -6 -180 -9 -69 -4
-147 -9 -175 -11 -27 -2 -108 -7 -180 -10 -71 -4 -159 -8 -195 -10 -36 -2
-112 -7 -170 -10 -58 -3 -141 -8 -185 -10 -44 -3 -134 -7 -200 -11 -66 -3
-147 -7 -180 -9 -280 -17 -565 -23 -615 -12 -14 3 -30 6 -37 6 -22 2 -76 55
-90 89 -8 20 -16 86 -20 161 -7 176 -7 3363 1 3545 5 141 7 151 32 183 30 40
70 59 137 67 137 17 122 16 397 31 58 3 134 8 170 10 36 2 117 7 180 10 63 3
144 8 180 10 36 2 112 7 170 10 108 6 209 12 340 20 41 2 120 7 175 10 55 3
132 7 170 10 39 2 115 7 170 10 148 9 240 14 333 20 100 6 213 13 352 20 58 3
139 8 180 11 41 3 116 7 165 9 50 3 122 7 160 10 39 2 126 8 195 11 69 3 143
7 165 9 22 1 103 6 180 10 77 4 141 8 142 9 1 1 49 2 105 1 95 0 106 -2 135
-25z"/>
<path d="M4241 3675 c-79 -22 -147 -62 -218 -129 -36 -33 -68 -56 -75 -52 -7
3 -34 21 -61 40 -134 98 -335 112 -497 35 -82 -39 -175 -132 -220 -223 -31
-62 -35 -80 -39 -165 -7 -213 43 -301 282 -495 98 -79 260 -211 328 -267 156
-129 325 -259 335 -259 10 0 89 76 141 136 10 12 41 48 69 80 71 82 125 144
154 178 14 16 52 61 85 100 178 208 269 330 293 391 22 55 38 169 31 225 -8
70 -56 180 -108 247 -46 59 -122 114 -202 145 -72 27 -222 34 -298 13z"/>
</g>
</svg>
