<?xml version="1.0" standalone="no"?>
<!DOCTYPE svg PUBLIC "-//W3C//DTD SVG 20010904//EN"
 "http://www.w3.org/TR/2001/REC-SVG-20010904/DTD/svg10.dtd">
<svg version="1.0" xmlns="http://www.w3.org/2000/svg"
 width="500.000000pt" height="500.000000pt" viewBox="0 0 500.000000 500.000000"
 preserveAspectRatio="xMidYMid meet">

<g transform="translate(0.000000,500.000000) scale(0.100000,-0.100000)"
fill="#000000" stroke="none">
<path d="M3105 4700 c-49 -4 -126 -11 -170 -14 -44 -3 -537 -40 -1095 -81
-1350 -100 -1253 -91 -1310 -116 -59 -25 -122 -90 -141 -145 -12 -32 -14 -278
-14 -1474 l0 -1435 23 -58 c38 -94 66 -132 530 -730 112 -144 213 -270 225
-280 60 -49 121 -70 212 -74 113 -5 3005 172 3060 187 58 17 121 56 149 93 58
76 56 10 56 1707 0 1797 12 1601 -112 1693 -99 73 -892 627 -947 661 -104 66
-249 86 -466 66z m266 -254 c37 -8 86 -24 110 -37 59 -29 530 -369 536 -386 3
-8 2 -18 -3 -23 -5 -4 -137 -16 -294 -24 -627 -36 -824 -48 -1550 -92 -415
-25 -791 -44 -835 -42 -63 2 -92 9 -135 31 -66 33 -431 319 -445 349 -12 28
21 55 78 63 23 3 330 25 682 50 953 67 1488 105 1595 114 146 12 190 12 261
-3z m918 -771 c21 -19 33 -40 41 -78 7 -36 10 -452 8 -1372 -3 -1279 -4 -1321
-22 -1359 -23 -45 -64 -73 -121 -81 -69 -10 -2450 -146 -2645 -151 -210 -6
-236 0 -275 66 -20 35 -20 46 -20 1392 0 1355 0 1357 21 1385 40 55 63 59 409
78 176 9 795 45 1375 80 580 34 1087 63 1127 64 63 1 75 -2 102 -24z"/>
<path d="M3055 2631 c-67 -12 -132 -47 -180 -96 l-45 -46 -42 30 c-73 52 -147
73 -236 65 -133 -11 -227 -75 -289 -194 -25 -49 -28 -65 -28 -145 1 -133 36
-192 189 -315 51 -41 162 -131 246 -200 204 -167 233 -189 246 -190 5 0 73 73
150 162 371 430 378 440 395 551 12 77 5 115 -34 197 -66 137 -217 210 -372
181z"/>
</g>
</svg>
